<svg width="24" height="24" viewBox="0 0 24 24" fill="none" xmlns="http://www.w3.org/2000/svg">
<g clip-path="url(#clip0_1_17)">
<path d="M16.125 9.375V13.125C16.125 14.219 15.6904 15.2682 14.9168 16.0418C14.1432 16.8154 13.094 17.25 12 17.25C10.906 17.25 9.85677 16.8154 9.08318 16.0418C8.3096 15.2682 7.875 14.219 7.875 13.125V9.375H16.125Z" fill="white"/>
<path d="M12.75 6.75H11.25L10.5 0.75H13.5L12.75 6.75Z" fill="white"/>
<path d="M12 10.5C12.6213 10.5 13.125 9.99632 13.125 9.375C13.125 8.75368 12.6213 8.25 12 8.25C11.3787 8.25 10.875 8.75368 10.875 9.375C10.875 9.99632 11.3787 10.5 12 10.5Z" fill="#504D4D"/>
<path d="M13.0151 15.0454L13.2349 15.2651L13.7651 14.7349L13.5454 14.5151C13.1355 14.1053 12.5796 13.875 12 13.875C11.4204 13.875 10.8645 14.1053 10.4546 14.5151L10.2349 14.7349L10.7651 15.2651L10.9849 15.0454C11.2541 14.7762 11.6193 14.625 12 14.625C12.3807 14.625 12.7459 14.7762 13.0151 15.0454Z" fill="#504D4D"/>
<path d="M14.25 18.7541V17.016C15.1746 16.4793 15.8788 15.6321 16.2375 14.625H16.5C16.8978 14.625 17.2794 14.467 17.5607 14.1857C17.842 13.9044 18 13.5228 18 13.125C18 12.7272 17.842 12.3456 17.5607 12.0643C17.2794 11.783 16.8978 11.625 16.5 11.625V9.375C16.5 9.27554 16.4605 9.18016 16.3902 9.10983C16.3198 9.03951 16.2245 9 16.125 9H13.4468C13.3649 8.67841 13.1782 8.39325 12.9162 8.18958C12.6542 7.98592 12.3318 7.87535 12 7.87535C11.6682 7.87535 11.3458 7.98592 11.0838 8.18958C10.8218 8.39325 10.6351 8.67841 10.5533 9H7.875C7.77554 9 7.68016 9.03951 7.60983 9.10983C7.53951 9.18016 7.5 9.27554 7.5 9.375V11.625C7.10218 11.625 6.72064 11.783 6.43934 12.0643C6.15804 12.3456 6 12.7272 6 13.125C6 13.5228 6.15804 13.9044 6.43934 14.1857C6.72064 14.467 7.10218 14.625 7.5 14.625H7.7625C8.12117 15.6321 8.82542 16.4793 9.75 17.016V18.7541C7.99741 18.7996 6.27211 19.199 4.67779 19.9282C3.08347 20.6574 1.65305 21.7015 0.4725 22.9976C0.42359 23.0514 0.391353 23.1182 0.37971 23.1899C0.368066 23.2617 0.377519 23.3352 0.406916 23.4017C0.436314 23.4682 0.484391 23.5246 0.5453 23.5643C0.606209 23.6039 0.677325 23.625 0.75 23.625H23.25C23.3227 23.625 23.3938 23.6039 23.4547 23.5643C23.5156 23.5246 23.5637 23.4682 23.5931 23.4017C23.6225 23.3352 23.6319 23.2617 23.6203 23.1899C23.6086 23.1182 23.5764 23.0514 23.5275 22.9976C22.347 21.7015 20.9165 20.6574 19.3222 19.9282C17.7279 19.199 16.0026 18.7996 14.25 18.7541ZM15.75 19.6391V20.25H14.25C14.1883 20.25 14.1275 20.2652 14.0731 20.2943C14.0187 20.3234 13.9723 20.3655 13.938 20.4169L13.3718 21.2662L12.375 20.7682V20.4623L13.9766 19.5C14.5703 19.5031 15.1631 19.5496 15.75 19.6391ZM17.25 13.125C17.25 13.3239 17.171 13.5147 17.0303 13.6553C16.8897 13.796 16.6989 13.875 16.5 13.875H16.4321C16.4757 13.6273 16.4984 13.3765 16.5 13.125V12.375C16.6989 12.375 16.8897 12.454 17.0303 12.5947C17.171 12.7353 17.25 12.9261 17.25 13.125ZM12 8.625C12.1483 8.625 12.2933 8.66899 12.4167 8.7514C12.54 8.83381 12.6361 8.95094 12.6929 9.08799C12.7497 9.22503 12.7645 9.37583 12.7356 9.52132C12.7067 9.6668 12.6352 9.80044 12.5303 9.90533C12.4254 10.0102 12.2918 10.0816 12.1463 10.1106C12.0008 10.1395 11.85 10.1247 11.713 10.0679C11.5759 10.0111 11.4588 9.91501 11.3764 9.79168C11.294 9.66834 11.25 9.52334 11.25 9.375C11.25 9.17609 11.329 8.98532 11.4697 8.84467C11.6103 8.70402 11.8011 8.625 12 8.625ZM7.5 13.875C7.30109 13.875 7.11032 13.796 6.96967 13.6553C6.82902 13.5147 6.75 13.3239 6.75 13.125C6.75 12.9261 6.82902 12.7353 6.96967 12.5947C7.11032 12.454 7.30109 12.375 7.5 12.375V13.125C7.50161 13.3765 7.52431 13.6273 7.56787 13.875H7.5ZM8.25 13.125V9.75H10.5533C10.6351 10.0716 10.8218 10.3567 11.0838 10.5604C11.3458 10.7641 11.6682 10.8746 12 10.8746C12.3318 10.8746 12.6542 10.7641 12.9162 10.5604C13.1782 10.3567 13.3649 10.0716 13.4468 9.75H15.75V13.125C15.75 14.1196 15.3549 15.0734 14.6517 15.7766C13.9484 16.4799 12.9946 16.875 12 16.875C11.0054 16.875 10.0516 16.4799 9.34835 15.7766C8.64509 15.0734 8.25 14.1196 8.25 13.125ZM12 17.625C12.5113 17.6239 13.0187 17.5351 13.5 17.3625V18.9127L12 19.8127L10.5 18.9127V17.3625C10.9813 17.5351 11.4887 17.6239 12 17.625ZM10.0234 19.5L11.625 20.4623V20.7682L10.6282 21.2662L10.062 20.4169C10.0277 20.3655 9.98134 20.3234 9.92692 20.2943C9.87249 20.2652 9.81172 20.25 9.75 20.25H8.25V19.6391C8.83695 19.5496 9.42965 19.5031 10.0234 19.5ZM7.5 19.779V20.625C7.5 20.7245 7.53951 20.8198 7.60983 20.8902C7.68016 20.9605 7.77554 21 7.875 21H9.54938L10.1869 21.9577C10.2376 22.0338 10.3143 22.0887 10.4026 22.1122C10.4909 22.1357 10.5847 22.1261 10.6665 22.0852L11.625 21.6067V22.875H1.64062C3.27248 21.3246 5.29968 20.2535 7.5 19.779ZM12.375 22.875V21.6067L13.3328 22.0852C13.4145 22.1261 13.5084 22.1357 13.5967 22.1122C13.685 22.0887 13.7617 22.0338 13.8124 21.9577L14.4506 21H16.125C16.2245 21 16.3198 20.9605 16.3902 20.8902C16.4605 20.8198 16.5 20.7245 16.5 20.625V19.779C18.7003 20.2535 20.7275 21.3246 22.3594 22.875H12.375Z" fill="#504D4D"/>
<path d="M9.74963 11.625H10.5004V12.375H9.74963V11.625Z" fill="#504D4D"/>
<path d="M13.4996 11.625H14.25V12.375H13.4996V11.625Z" fill="#504D4D"/>
<path d="M11.25 7.125H12.75C12.8414 7.12497 12.9296 7.09158 12.9981 7.03109C13.0666 6.9706 13.1107 6.88718 13.122 6.7965L13.872 0.7965C13.8786 0.743748 13.8739 0.690197 13.8582 0.639399C13.8425 0.588601 13.8162 0.541718 13.7811 0.501859C13.7459 0.462 13.7026 0.430076 13.6542 0.408205C13.6057 0.386333 13.5532 0.375015 13.5 0.375H10.5C10.4468 0.375015 10.3943 0.386333 10.3458 0.408205C10.2974 0.430076 10.2541 0.462 10.2189 0.501859C10.1838 0.541718 10.1575 0.588601 10.1418 0.639399C10.1261 0.690197 10.1214 0.743748 10.128 0.7965L10.878 6.7965C10.8893 6.88718 10.9334 6.9706 11.0019 7.03109C11.0704 7.09158 11.1586 7.12497 11.25 7.125ZM13.0751 1.125L12.4189 6.375H11.5811L10.9249 1.125H13.0751Z" fill="#504D4D"/>
<path d="M16.125 3.03037V3.75C16.125 3.82066 16.1449 3.88989 16.1825 3.94972C16.2201 4.00954 16.2739 4.05752 16.3376 4.08813C16.4012 4.11874 16.4723 4.13073 16.5425 4.12273C16.6127 4.11472 16.6792 4.08704 16.7344 4.04287L18 3.03037V3.75C18 3.82066 18.0199 3.88989 18.0575 3.94972C18.0951 4.00954 18.1489 4.05752 18.2126 4.08813C18.2762 4.11874 18.3473 4.13073 18.4175 4.12273C18.4877 4.11472 18.5542 4.08704 18.6094 4.04287L19.875 3.03037V4.125H20.625V2.25C20.625 2.17934 20.6051 2.11011 20.5675 2.05028C20.5299 1.99046 20.4761 1.94248 20.4124 1.91187C20.3488 1.88126 20.2777 1.86927 20.2075 1.87727C20.1373 1.88528 20.0708 1.91296 20.0156 1.95712L18.75 2.96962V2.25C18.75 2.17934 18.7301 2.11011 18.6925 2.05028C18.6549 1.99046 18.6011 1.94248 18.5374 1.91187C18.4738 1.88126 18.4027 1.86927 18.3325 1.87727C18.2623 1.88528 18.1958 1.91296 18.1406 1.95712L16.875 2.96962V2.25C16.875 2.17934 16.8551 2.11011 16.8175 2.05028C16.7799 1.99046 16.7261 1.94248 16.6624 1.91187C16.5988 1.88126 16.5277 1.86927 16.4575 1.87727C16.3873 1.88528 16.3208 1.91296 16.2656 1.95712L14.3906 3.45712L14.8594 4.04287L16.125 3.03037Z" fill="#504D4D"/>
<path d="M15.75 7.15538V7.875C15.75 7.94566 15.7699 8.01489 15.8075 8.07472C15.8451 8.13454 15.8989 8.18252 15.9626 8.21313C16.0262 8.24374 16.0973 8.25573 16.1675 8.24773C16.2377 8.23972 16.3042 8.21204 16.3594 8.16788L17.625 7.15538V7.875C17.625 7.94566 17.6449 8.01489 17.6825 8.07472C17.7201 8.13454 17.7739 8.18252 17.8376 8.21313C17.9012 8.24374 17.9723 8.25573 18.0425 8.24773C18.1127 8.23972 18.1792 8.21204 18.2344 8.16788L19.5 7.15538V8.25H20.25V6.375C20.25 6.30434 20.2301 6.23511 20.1925 6.17528C20.1549 6.11546 20.1011 6.06748 20.0374 6.03687C19.9738 6.00626 19.9027 5.99427 19.8325 6.00227C19.7623 6.01028 19.6958 6.03796 19.6406 6.08213L18.375 7.09463V6.375C18.375 6.30434 18.3551 6.23511 18.3175 6.17528C18.2799 6.11546 18.2261 6.06748 18.1624 6.03687C18.0988 6.00626 18.0277 5.99427 17.9575 6.00227C17.8873 6.01028 17.8208 6.03796 17.7656 6.08213L16.5 7.09463V6.375C16.5 6.30434 16.4801 6.23511 16.4425 6.17528C16.4049 6.11546 16.3511 6.06748 16.2874 6.03687C16.2238 6.00626 16.1527 5.99427 16.0825 6.00227C16.0123 6.01028 15.9458 6.03796 15.8906 6.08213L14.0156 7.58213L14.4844 8.16788L15.75 7.15538Z" fill="#504D4D"/>
<path d="M4.125 3.03037L5.39062 4.04287C5.44579 4.08704 5.5123 4.11472 5.58251 4.12273C5.65271 4.13073 5.72376 4.11874 5.78744 4.08813C5.85113 4.05752 5.90487 4.00954 5.94248 3.94972C5.98009 3.88989 6.00003 3.82066 6 3.75V3.03037L7.26562 4.04287C7.32079 4.08704 7.3873 4.11472 7.45751 4.12273C7.52771 4.13073 7.59876 4.11874 7.66244 4.08813C7.72613 4.05752 7.77987 4.00954 7.81748 3.94972C7.85509 3.88989 7.87503 3.82066 7.875 3.75V3.03037L9.14062 4.04287L9.60938 3.45712L7.73438 1.95712C7.67921 1.91296 7.6127 1.88528 7.54249 1.87727C7.47229 1.86927 7.40124 1.88126 7.33756 1.91187C7.27387 1.94248 7.22013 1.99046 7.18252 2.05028C7.14491 2.11011 7.12497 2.17934 7.125 2.25V2.96962L5.85938 1.95712C5.80421 1.91296 5.7377 1.88528 5.66749 1.87727C5.59729 1.86927 5.52624 1.88126 5.46256 1.91187C5.39887 1.94248 5.34513 1.99046 5.30752 2.05028C5.26991 2.11011 5.24997 2.17934 5.25 2.25V2.96962L3.98438 1.95712C3.92921 1.91296 3.8627 1.88528 3.79249 1.87727C3.72229 1.86927 3.65124 1.88126 3.58756 1.91187C3.52387 1.94248 3.47013 1.99046 3.43252 2.05028C3.39491 2.11011 3.37497 2.17934 3.375 2.25V4.125H4.125V3.03037Z" fill="#504D4D"/>
<path d="M7.71225 6.0375C7.64872 6.06811 7.5951 6.11601 7.55756 6.17571C7.52001 6.2354 7.50006 6.30448 7.5 6.375V7.09463L6.23438 6.08213C6.17921 6.03796 6.1127 6.01028 6.04249 6.00227C5.97229 5.99427 5.90124 6.00626 5.83756 6.03687C5.77387 6.06748 5.72013 6.11546 5.68252 6.17528C5.64491 6.23511 5.62497 6.30434 5.625 6.375V7.09463L4.35938 6.08213C4.30421 6.03796 4.2377 6.01028 4.16749 6.00227C4.09729 5.99427 4.02624 6.00626 3.96256 6.03687C3.89887 6.06748 3.84513 6.11546 3.80752 6.17528C3.76991 6.23511 3.74997 6.30434 3.75 6.375V8.25H4.5V7.15538L5.76562 8.16788C5.82079 8.21204 5.8873 8.23972 5.95751 8.24773C6.02771 8.25573 6.09876 8.24374 6.16244 8.21313C6.22613 8.18252 6.27987 8.13454 6.31748 8.07472C6.35509 8.01489 6.37503 7.94566 6.375 7.875V7.15538L7.64062 8.16788C7.69579 8.21204 7.7623 8.23972 7.83251 8.24773C7.90271 8.25573 7.97376 8.24374 8.03744 8.21313C8.10113 8.18252 8.15487 8.13454 8.19248 8.07472C8.23009 8.01489 8.25003 7.94566 8.25 7.875V7.15538L9.51562 8.16788L9.98438 7.58213L8.10938 6.08213C8.05412 6.038 7.98752 6.0104 7.91725 6.00251C7.84699 5.99461 7.77592 6.00674 7.71225 6.0375Z" fill="#504D4D"/>
</g>
<defs>
<clipPath id="clip0_1_17">
<rect width="24" height="24" fill="white"/>
</clipPath>
</defs>
</svg>
