<svg width="21" height="20" viewBox="0 0 21 20" fill="none" xmlns="http://www.w3.org/2000/svg">
<path d="M18.7303 8.23306C18.485 8.06839 18.2635 7.87088 18.072 7.64598C18.0862 7.33286 18.1491 7.02387 18.2585 6.73017C18.4642 6.034 18.7203 5.16758 18.2267 4.48962C17.7295 3.80626 16.8213 3.78332 16.0917 3.76467C15.7847 3.77693 15.4777 3.74392 15.1803 3.6667C15.0169 3.41027 14.892 3.13118 14.8099 2.83836C14.5664 2.14501 14.2632 1.28204 13.4509 1.01809C12.6628 0.761939 11.9555 1.2486 11.3318 1.67656C11.0812 1.87667 10.7998 2.03485 10.4986 2.14498C10.1972 2.03497 9.91571 1.87676 9.66505 1.67656C9.04137 1.24822 8.33388 0.763099 7.54594 1.01809C6.73393 1.28204 6.43074 2.14457 6.187 2.83808C6.10501 3.12942 5.98156 3.40748 5.82044 3.66369C5.52217 3.74327 5.21359 3.77721 4.90516 3.76439C4.17555 3.78301 3.26732 3.80598 2.77016 4.4893C2.27658 5.16764 2.53266 6.03406 2.73832 6.7303C2.84645 7.02246 2.90994 7.32922 2.92665 7.64031C2.73597 7.86838 2.51364 8.06802 2.26642 8.23309C1.67772 8.68205 0.945312 9.24098 0.945312 10.1059C0.945312 10.9708 1.67772 11.5297 2.26655 11.9787C2.51179 12.1434 2.73331 12.3409 2.92483 12.5658C2.9106 12.8789 2.84767 13.1879 2.73826 13.4816C2.53263 14.1778 2.27651 15.0443 2.7701 15.7222C3.26726 16.4055 4.17549 16.4285 4.90513 16.4471C5.21208 16.4349 5.51913 16.4679 5.81646 16.5451C5.97993 16.8015 6.10476 17.0807 6.18691 17.3734C6.43064 18.0669 6.73384 18.9298 7.54603 19.1938C7.68992 19.241 7.84042 19.265 7.99186 19.265C8.60313 19.265 9.16131 18.8813 9.66511 18.5353C9.91574 18.3352 10.1971 18.177 10.4984 18.0668C10.7997 18.1768 11.0813 18.335 11.332 18.5352C11.9557 18.9636 12.663 19.4483 13.4511 19.1937C14.2631 18.9297 14.5663 18.0672 14.81 17.3737C14.892 17.0824 15.0155 16.8043 15.1766 16.5481C15.4749 16.4685 15.7834 16.4346 16.0919 16.4474C16.8215 16.4288 17.7297 16.4058 18.2269 15.7225C18.7204 15.0442 18.4644 14.1777 18.2587 13.4815C18.1506 13.1893 18.0871 12.8826 18.0704 12.5715C18.2611 12.3434 18.4834 12.1438 18.7306 11.9787C19.3191 11.5297 20.0515 10.9708 20.0515 10.1059C20.0515 9.24098 19.3191 8.68205 18.7303 8.23306ZM14.0466 8.67854L10.0661 12.659C9.75537 12.9698 9.25144 12.9699 8.94057 12.6592C8.94051 12.6591 8.94045 12.659 8.94039 12.659L6.95015 10.6687C6.63533 10.3618 6.62894 9.8578 6.93586 9.54298C7.24278 9.22816 7.7468 9.22177 8.06162 9.52869C8.06645 9.53339 8.07121 9.53815 8.07591 9.54298L9.50327 10.9704L12.9209 7.55274C13.2278 7.23792 13.7318 7.23156 14.0466 7.53848C14.3614 7.8454 14.3678 8.34943 14.0609 8.66424C14.0562 8.6691 14.0514 8.67383 14.0466 8.67854Z" fill="#6DB27D"/>
</svg>
